<?xml version="1.0" encoding="utf-8"?>
<!-- Generator: Adobe Illustrator 24.1.2, SVG Export Plug-In . SVG Version: 6.00 Build 0)  -->
<svg version="1.1" id="Layer_1" xmlns="http://www.w3.org/2000/svg" xmlns:xlink="http://www.w3.org/1999/xlink" x="0px" y="0px"
	 viewBox="0 0 1900 27.8" style="enable-background:new 0 0 1900 27.8;" xml:space="preserve">
<style type="text/css">
	.st0{fill:#FFFFFF;}
</style>
<g>
	<path class="st0" d="M1900,27.2H0V16.4c0,0,43.6,1.6,112.6,0.5c32.2-0.6,67.7-2.5,105.9-3.7s70.4-1.5,80.4-1.6
		c39.5-0.2,73.7,0.5,95.2,0.9C445,13.4,482.5,16,508,17.2c26.1,1.2,61,1.9,70.4,2C666.8,20,882,3.7,1000.6,3.4
		c111.3-0.3,201.1,6.1,245.3,9.3c39.5,2.8,42.9,3,120.6,7.4s223.8-3.7,299.6-5.7c55.6-1.5,94.5-1.8,140.1-1.5
		c44.9,0.3,93.8,4.6,93.8,4.6V27.2z M1720.4,15.5c-19.4,0.4-38.2,1.8-40.2,1.9c-2,0.1,23.5-1.1,38.9-1.1s24.1,0.6,28.8-0.4
		C1751.9,14.9,1740.5,15,1720.4,15.5z M1585.7,19.1c-20.8,0.5-61,2-83.1,2.7c-53.6,1.7-112.6,1-118,1.1c-4.7,0.1,46.2,1.2,101.2,0.1
		c32.2-0.7,79.8-2.7,101.2-3.5c21.4-0.7,37.5-0.9,37.5-0.9S1607.8,18.5,1585.7,19.1z M1117.2,11.7c-16.1-0.5-14.7-0.8-50.9-1.6
		s-75.1-0.2-75.1,0c-0.7,0.1,32.8,0.1,59,0.5c25.5,0.4,52.9,1.4,67,2c34.9,1.4,135.4,6.8,124,6.1C1229.8,18,1142.7,12.5,1117.2,11.7
		z M1300.2,18.5c-20.8-1.2-45.6-3.1-44.2-3c1.3,0.2,19.4,2.2,46.2,3.7c26.8,1.5,33.5,1.1,32.2,1.1
		C1333.7,20.3,1320.3,19.7,1300.2,18.5z M1869.2,18.5c-26.1-1.9-48.3-2.5-49.6-2.5c-1.3-0.1,25.5,1.3,44.9,2.7
		c19.4,1.4,31.5,2.4,32.2,2.5C1897.3,21.3,1895.3,20.4,1869.2,18.5z M173.6,16.3c-22.1,1.1-23.5,1.1-38.2,1.6
		c-28.8,1-81.8,0.6-83.8,0.7c-2.7,0.1,48.9,1,75.7,0.2c16.1-0.4,34.9-1,52.3-2s30.8-1,30.2-1.2C209.1,15.3,195.7,15.2,173.6,16.3z
		 M563.6,21.7c34.9,0.6,41.6,0,41.6-0.3c0-0.3-26.8,0.3-59.6-0.8c-32.8-1-53.6-2.5-56.3-2.6S528.8,21.1,563.6,21.7z M512.7,22.6
		c10.7,0.4,18.1,0.3,18.1,0.2c0-0.1,2.7-0.3-12.7-0.6c-15.4-0.4-36.9-1.8-38.2-1.7C478.5,20.6,501.3,22.1,512.7,22.6z M661.5,21.8
		c10.7-0.5,16.8-1.2,16.1-1.3c-0.7-0.1,1.3-0.5-12.7,0.5c-14.1,1-36.9,1.6-37.5,1.8C626.6,23,650.8,22.4,661.5,21.8z M449,16.7
		c10.7,0.4,14.1,0.7,16.8,0.8s-4-0.5-14.7-1.2c-10.7-0.7-13.4-0.5-12.7-0.2C439,16.4,437.6,16.3,449,16.7z M256,14.5
		c10.1,0.1,10.7-0.1,10.7-0.4s-5.4-0.3-13.4-0.2c-8,0.1-23.5,0.9-22.1,0.9S245.3,14.4,256,14.5z M965.1,5.8
		C921.5,6,830.4,11,854.5,9.9c24.1-1.1,81.8-3.5,115.3-3.5c34.2,0,49.6-0.4,50.3-0.3C1020.7,6.2,1008.6,5.6,965.1,5.8z"/>
	<path class="st0" d="M1761.3,8.8c-22.1,0.2-111.3,3-113.9,3.3c-2.7,0.3,62.3-2.2,111.3-2.9c17.4-0.3,47.6,0.1,48.3,0
		C1807.5,9.2,1794.1,8.4,1761.3,8.8z"/>
	<path class="st0" d="M1467.1,19.3c-49.6,0.6-87.1-1.1-89.1-1.2c-2.7-0.1,48.9,0.7,82.4,0.5c33.5-0.2,62.3-1.1,63.7-1.2
		C1525.4,17.3,1516.6,18.7,1467.1,19.3z"/>
	<path class="st0" d="M1394.7,14.2c10.1-0.1,10.7,0.1,10.7,0.4s-5.4,0.4-13.4,0.3s-22.1-1-21.4-1.1
		C1371.2,13.7,1383.3,14.3,1394.7,14.2z"/>
	<path class="st0" d="M1306.2,13.9c-14.1-1-41.6-2.7-42.2-2.6c-0.7,0,28.1,2.2,40.9,3.1c12.7,1,42.2,2.3,42.2,2.2
		S1320.3,14.9,1306.2,13.9z"/>
	<path class="st0" d="M989.9,0.1c-22.1,0.2-111.3,3-113.9,3.3c-2.7,0.3,62.3-2.2,111.3-2.9c17.4-0.3,47.6,0.1,48.3,0
		C1036.1,0.4,1022.7-0.3,989.9,0.1z"/>
	<path class="st0" d="M299.6,8.4c10.7,0.1,32.8-0.3,44.9-0.4c28.8-0.3,55,1.9,57.6,1.9c2.7,0.1-18.8-2.2-46.9-2.6
		c-16.1-0.2-43.6,0.5-55,0.7c-11.4,0.2-19.4-0.1-19.4-0.1S288.9,8.3,299.6,8.4z"/>
	<path class="st0" d="M526.1,16.2c10.7,0.4,22.8,0.1,22.8,0c0-0.2,1.3-0.3-14.1-0.5c-15.4-0.3-27.5-1.2-28.8-1.1
		C504.7,14.7,515.4,15.7,526.1,16.2z"/>
	<path class="st0" d="M148.8,12.9c16.1-0.6,34.2-1.5,34.2-1.4s-17.4,1.5-33.5,2s-44.9,0.6-44.9,0.5
		C105.2,13.9,133.4,13.5,148.8,12.9z"/>
</g>
</svg>
