<?xml version="1.0" encoding="utf-8"?>
<!-- Generator: Adobe Illustrator 22.0.1, SVG Export Plug-In . SVG Version: 6.00 Build 0)  -->
<svg version="1.1" xmlns="http://www.w3.org/2000/svg" xmlns:xlink="http://www.w3.org/1999/xlink" x="0px" y="0px"
	 viewBox="0 0 84 94.7" style="enable-background:new 0 0 84 94.7;" xml:space="preserve">
<style type="text/css">
	.st0{display:none;}
	.st1{display:inline;}
	.st2{fill:#282828;}
	.st3{fill:#EE333F;}
</style>
<g id="creative" class="st0">
	<g class="st1">
		<path id="XMLID_606_" class="st2" d="M42.3,20.4c-7.1,0-13.5,3.1-17.9,7.9c-0.3,0.4-0.5,0.9-0.3,1.4c0,0,0,0,0,0
			c0.3,1,1.6,1.3,2.4,0.5c3.9-4.3,9.5-6.9,15.8-6.9c11.8,0,21.4,9.5,21.4,21.4c0,6.2-2.6,12.1-7.3,16.1c-0.1,0.1-0.3,0.3-0.3,0.4
			c-3.4,3.7-4,9.7-4.1,12.6H32.5c-0.1-2.9-0.7-9.2-4.4-13c-4.6-4-7.4-9.9-7.4-16.1c0-3,0.6-5.9,1.8-8.6c0.2-0.4,0.1-0.9-0.1-1.2l0,0
			c-0.6-1-2-1-2.5,0.1c-1.3,3-2.1,6.3-2.1,9.8c0,7,3.1,13.8,8.2,18.3c3.9,3.9,3.5,12.1,3.4,12.2c0,0.4,0.1,0.8,0.4,1.1
			c0.3,0.3,0.7,0.4,1.1,0.4h22.3c0.4,0,0.8-0.2,1.1-0.4c0.3-0.3,0.4-0.7,0.4-1.1c0-0.1-0.4-8.3,3.4-12.2c0.1-0.1,0.2-0.2,0.3-0.3
			c5.1-4.6,8.1-11.2,8.1-18C66.6,31.4,55.7,20.4,42.3,20.4z"/>
		<path id="XMLID_605_" class="st2" d="M44.2,26.7c-0.6-0.1-1.2-0.1-1.8-0.1c-0.6,0-1.1,0.2-1.4,0.7c-0.7,1,0.2,2.3,1.2,2.3
			c0.6,0,1.1,0,1.7,0.1c0.8,0.1,1.5-0.4,1.6-1.2c0,0,0,0,0,0C45.6,27.6,45,26.8,44.2,26.7z"/>
		<path id="XMLID_604_" class="st2" d="M47.2,28.7C47.2,28.7,47.2,28.8,47.2,28.7c-0.4,0.8,0.1,1.7,0.8,2
			c5.9,2.3,10.1,8.1,10.1,14.7c0,0.5,0.2,1,0.7,1.3c1,0.7,2.3-0.2,2.3-1.2c0.1-8-4.9-14.9-12-17.6C48.4,27.6,47.5,28,47.2,28.7z"/>
		<path id="XMLID_601_" class="st2" d="M51.9,78.5H32.4c-2,0-3.7,1.7-3.7,3.7s1.7,3.7,3.7,3.7h19.4c2.1-0.1,3.8-1.7,3.8-3.7
			S53.9,78.5,51.9,78.5z M51.9,82.8H32.4c-0.4,0-0.7-0.3-0.7-0.7c0-0.4,0.3-0.7,0.7-0.7h19.4c0.4,0,0.7,0.3,0.7,0.7
			C52.5,82.5,52.2,82.8,51.9,82.8z"/>
		<path id="XMLID_595_" class="st2" d="M49,87.3H35.3c-2,0-3.7,1.7-3.7,3.7s1.7,3.7,3.7,3.7H49c2,0,3.7-1.7,3.7-3.7
			C52.7,88.9,51,87.3,49,87.3z M49,91.6H35.3c-0.4,0-0.7-0.3-0.7-0.7s0.3-0.7,0.7-0.7H49c0.4,0,0.7,0.3,0.7,0.7S49.4,91.6,49,91.6z"
			/>
		<path id="XMLID_594_" class="st3" d="M42.2,13.1c0.9,0,1.5-0.7,1.5-1.5V1.5C43.7,0.7,43,0,42.2,0c-0.8,0-1.5,0.7-1.5,1.5v10.2
			C40.7,12.4,41.4,13.1,42.2,13.1z"/>
		<path id="XMLID_593_" class="st3" d="M67,7.5c-0.7-0.5-1.6-0.3-2,0.4l-5.6,8.4C58.8,17,59,18,59.7,18.4c0.3,0.2,0.5,0.3,0.8,0.3
			c0.5,0,1-0.3,1.2-0.7l5.6-8.4C67.8,8.9,67.7,8,67,7.5z"/>
		<path id="XMLID_592_" class="st3" d="M24.4,18.3c0.3,0,0.5-0.1,0.8-0.3c0.7-0.4,0.9-1.4,0.4-2.1l-5.4-8.5
			c-0.4-0.7-1.4-0.9-2.1-0.4c-0.7,0.4-0.9,1.4-0.4,2.1l5.4,8.5C23.4,18.1,23.9,18.3,24.4,18.3z"/>
		<path id="XMLID_591_" class="st3" d="M13.8,27.6l-8.8-4.8c-0.7-0.4-1.7-0.1-2,0.6c-0.4,0.7-0.2,1.7,0.6,2l8.8,4.8
			c0.3,0.1,0.4,0.2,0.7,0.2c0.5,0,1.1-0.3,1.3-0.8C14.7,28.9,14.5,27.9,13.8,27.6z"/>
		<path id="XMLID_590_" class="st3" d="M81.5,23.4c-0.4-0.7-1.3-1-2-0.6l-8.9,4.8c-0.7,0.4-1,1.3-0.6,2c0.3,0.5,0.8,0.8,1.3,0.8
			c0.3,0,0.5-0.1,0.7-0.2l8.9-4.8C81.6,25.1,81.9,24.1,81.5,23.4z"/>
	</g>
</g>
<g id="collaborative">
	<g>
		<path id="XMLID_661_" class="st3" d="M42,16c0.9,0,1.7-0.7,1.7-1.7V7c0-0.9-0.7-1.7-1.7-1.7S40.4,6.1,40.4,7v7.4
			C40.4,15.3,41.1,16,42,16L42,16z"/>
		<path id="XMLID_643_" class="st2" d="M82.4,62.1l-2.9-2.9c-1-1-2.4-1.6-3.9-1.6c-0.9,0-1.8,0.2-2.7,0.7l-5.5-5.5l0.3-0.3
			c2.2-2.2,2.2-5.9,0-8.1c-0.8-0.8-1.8-1.3-2.9-1.6c0.1-0.5,0.2-1.1,0.2-1.6c0-1.5-0.6-3-1.7-4c-0.8-0.8-1.8-1.3-2.9-1.6
			c0.1-0.5,0.2-1.1,0.2-1.6c0-1.5-0.6-3-1.7-4.1c-0.8-0.8-1.8-1.3-2.9-1.6c0.6-1.9,0.1-4.1-1.4-5.7c-1.3-1.3-3-1.8-4.7-1.6
			l-10.9-2.1c-1.7-0.3-3.7-0.5-5,0.7c-0.1,0.1-0.2,0.2-0.3,0.3c-2-0.7-4.4-0.3-6,1.3c-1.1,1.1-1.7,2.5-1.7,4.1
			c0,0.6,0.1,1.1,0.2,1.6c-1.1,0.2-2.1,0.8-2.9,1.6c-1.1,1.1-1.7,2.5-1.7,4c0,0.6,0.1,1.1,0.2,1.6c-1.1,0.2-2.1,0.8-2.9,1.6
			c-1.1,1.1-1.7,2.5-1.7,4.1c0,1.2,0.4,2.3,1,3.2c-0.8,0.3-1.6,0.7-2.2,1.4c-2.2,2.2-2.2,5.9,0,8.1l0.3,0.3l-5.5,5.5
			c-2-1-4.6-0.6-6.3,1.1l-2.9,2.9c-1,1-1.6,2.4-1.6,3.9c0,1.5,0.6,2.9,1.6,3.9l3.6,3.6c0.6,0.6,1.7,0.6,2.3,0c0.6-0.6,0.6-1.7,0-2.3
			l-3.6-3.6c-0.4-0.4-0.6-1-0.6-1.6c0-0.6,0.2-1.1,0.6-1.6l2.9-2.9C7.9,61,9,60.8,9.9,61.4c0.1,0.1,0.1,0.2,0.2,0.3
			c0.1,0.1,0.3,0.3,0.5,0.3l16.7,16.7c0.1,0.2,0.2,0.3,0.3,0.5c0.1,0.1,0.3,0.2,0.5,0.3c0.4,0.4,0.5,0.9,0.5,1.5
			c0,0.6-0.2,1.1-0.6,1.6l-2.9,2.9c-0.9,0.9-2.3,0.9-3.1,0l-3.6-3.6c-0.6-0.6-1.7-0.6-2.3,0c-0.6,0.6-0.6,1.7,0,2.3l3.6,3.6
			c1.1,1.1,2.5,1.6,3.9,1.6c1.4,0,2.8-0.5,3.9-1.6l2.9-2.9c1-1,1.6-2.4,1.6-3.9c0-1.1-0.3-2.1-0.8-2.9l6.2-6.2c0,0,0,0,0,0
			c0.7-0.7,2.7-0.6,4.6-0.5c1.4,0.1,2.9,0.2,4.3,0l6.8,6.8c-0.4,0.8-0.7,1.7-0.7,2.6c0,1.5,0.6,2.9,1.6,3.9l2.9,2.9
			c1,1,2.4,1.6,3.9,1.6c1.5,0,2.9-0.6,3.9-1.6l17.7-17.7c1-1,1.6-2.4,1.6-3.9C84,64.5,83.5,63.2,82.4,62.1L82.4,62.1z M38.6,22.3
			l7.2,1.4L41.5,28c-0.7-0.3-1.6-0.9-2.6-1.9c-1.4-1.3-2.3-2.8-2.4-3.8c0,0,0,0,0,0c0,0,0,0,0,0c0-0.1,0-0.1,0-0.2
			C36.7,22.1,37.2,22.1,38.6,22.3L38.6,22.3z M30.2,23.7c0.8-0.8,2.1-0.9,3.1-0.3c0.5,2.2,2.5,4.3,3.3,5.1c0.6,0.6,2.7,2.4,4.8,2.9
			c0.3,0.4,0.4,0.9,0.4,1.4c0,0.7-0.3,1.3-0.7,1.7c-0.5,0.5-1.1,0.7-1.7,0.7c-0.7,0-1.3-0.3-1.7-0.7l0,0l0,0l-7.5-7.4
			c-0.5-0.5-0.7-1.1-0.7-1.7C29.5,24.7,29.7,24.1,30.2,23.7L30.2,23.7z M25.9,30.9c0.5-0.5,1.1-0.7,1.7-0.7c0.7,0,1.3,0.3,1.7,0.7
			l6,6c0.9,0.9,0.9,2.5,0,3.4c-0.5,0.5-1.1,0.7-1.7,0.7s-1.3-0.3-1.7-0.7l0,0l-4.6-4.6c0,0,0,0,0,0l-1.4-1.4
			c-0.5-0.5-0.7-1.1-0.7-1.7C25.2,31.9,25.4,31.3,25.9,30.9L25.9,30.9z M21.6,38.1c0.5-0.5,1.1-0.7,1.7-0.7c0.6,0,1.3,0.2,1.7,0.7
			l4.6,4.6c0.5,0.5,0.7,1.1,0.7,1.7c0,0.6-0.3,1.3-0.7,1.7c-0.5,0.5-1.1,0.7-1.7,0.7c-0.7,0-1.3-0.3-1.7-0.7l-1.7-1.7c0,0,0,0,0,0
			l-2.9-2.9c-0.5-0.5-0.7-1.1-0.7-1.7C20.9,39.1,21.1,38.5,21.6,38.1L21.6,38.1z M18.7,46.7c0.5-0.5,1.1-0.7,1.7-0.7
			c0.7,0,1.3,0.3,1.7,0.7l1.7,1.7c0.5,0.5,0.7,1.1,0.7,1.7c0,0.6-0.3,1.3-0.7,1.7c-0.5,0.5-1.1,0.7-1.7,0.7c-0.7,0-1.3-0.3-1.7-0.7
			l-0.2-0.2c0,0,0,0,0,0c0,0,0,0,0,0l-1.4-1.4C17.7,49.2,17.7,47.7,18.7,46.7L18.7,46.7z M52.4,65.5c-0.6-0.6-1.7-0.6-2.3,0L48.5,67
			c-1.4,1.4-3.9,1.2-6.4,1.1c-2.7-0.2-5.4-0.4-7.2,1.5l-6.1,6.1L13.7,60.4l5.4-5.4c0.9,0.5,1.9,0.8,3,0.8c1.5,0,3-0.6,4.1-1.7
			c1.1-1.1,1.7-2.5,1.7-4.1c0,0,0,0,0,0c0,0,0,0,0,0c1.5,0,3-0.6,4-1.7c1.1-1.1,1.7-2.5,1.7-4.1c0,0,0,0,0,0c0,0,0,0,0,0
			c1.5,0,3-0.6,4.1-1.7c1.1-1.1,1.7-2.6,1.7-4.1c0,0,0,0,0,0c1.5,0,3-0.6,4.1-1.7c1.1-1.1,1.7-2.5,1.7-4.1c0-1.1-0.3-2.1-0.8-3
			l4.7-4.7c0.4-0.4,0.8-0.6,1.2-0.7c0,0,0.1,0,0.1,0c0.7-0.1,1.5,0.1,2.1,0.7c0.9,0.9,0.9,2.5,0,3.4L51,30c0,0,0,0,0,0l-1.7,1.7
			c-0.6,0.6-0.6,1.7,0,2.3c0.6,0.6,1.7,0.6,2.3,0l1.4-1.4c0,0,0,0,0,0l0.2-0.2c0.9-0.9,2.5-0.9,3.4,0c0.5,0.5,0.7,1.1,0.7,1.7
			c0,0.6-0.3,1.3-0.7,1.7l-1.4,1.4c0,0,0,0,0,0l-1.7,1.6c-0.6,0.6-0.6,1.7,0,2.3c0.6,0.6,1.7,0.6,2.3,0l1.7-1.7
			c0.5-0.5,1.1-0.7,1.7-0.7c0.7,0,1.3,0.3,1.7,0.7c0.5,0.5,0.7,1.1,0.7,1.7c0,0.6-0.3,1.3-0.7,1.7l-2.9,2.9c-0.6,0.6-0.6,1.7,0,2.3
			c0.3,0.3,0.7,0.5,1.2,0.5c0.4,0,0.8-0.2,1.2-0.5l1.4-1.4c0,0,0,0,0,0c0.5-0.5,1.1-0.7,1.7-0.7c0.7,0,1.3,0.3,1.7,0.7
			c0.9,0.9,0.9,2.5,0,3.4L64,51.6c0,0,0,0,0,0c0,0,0,0,0,0l-2.3,2.3c-0.6,0.6-0.6,1.7,0,2.3c0.3,0.3,0.7,0.5,1.2,0.5
			c0.4,0,0.8-0.2,1.2-0.5l1.1-1.1l5.3,5.3L55.2,75.6l-5.5-5.4c0.4-0.2,0.7-0.5,1.1-0.9l1.5-1.5C53,67.2,53,66.2,52.4,65.5L52.4,65.5
			z M80.1,67.6L62.4,85.3c-0.4,0.4-1,0.6-1.6,0.6s-1.1-0.2-1.6-0.6l-2.9-2.9c-0.4-0.4-0.6-1-0.6-1.6c0-0.6,0.2-1.1,0.6-1.6L74,61.5
			c0.4-0.4,1-0.6,1.6-0.6c0.6,0,1.1,0.2,1.6,0.6l2.9,2.9c0.4,0.4,0.6,1,0.6,1.6C80.7,66.6,80.5,67.2,80.1,67.6z"/>
		<path id="XMLID_642_" class="st3" d="M20.1,14.6c0.3,0.3,0.7,0.5,1.2,0.5c0.4,0,0.8-0.2,1.2-0.5c0.6-0.6,0.6-1.7,0-2.3l-6-6
			c-0.6-0.6-1.7-0.6-2.3,0c-0.6,0.6-0.6,1.7,0,2.3L20.1,14.6z"/>
		<path id="XMLID_631_" class="st3" d="M62.8,15.1c0.4,0,0.8-0.2,1.2-0.5l6-6c0.6-0.6,0.6-1.7,0-2.3c-0.6-0.6-1.7-0.6-2.3,0l-6,6
			c-0.6,0.6-0.6,1.7,0,2.3C62,15,62.4,15.1,62.8,15.1z"/>
		<path id="XMLID_630_" class="st2" d="M10.5,76.4c-0.6,0.7-0.6,1.7,0,2.3l0,0c0.3,0.3,0.7,0.5,1.2,0.5c0.4,0,0.9-0.2,1.2-0.5
			c0.6-0.7,0.6-1.7,0-2.3C12.2,75.8,11.1,75.8,10.5,76.4z"/>
		<path id="XMLID_627_" class="st2" d="M56.4,63.1c0.3,0,0.5-0.1,0.7-0.2c0.8-0.4,1.1-1.4,0.7-2.2c-0.4-0.8-1.4-1.1-2.2-0.7l0,0
			c-0.8,0.4-1.1,1.4-0.7,2.2C55.2,62.8,55.8,63.1,56.4,63.1L56.4,63.1z"/>
	</g>
</g>
<g id="communication" class="st0">
	<g class="st1">
		<path id="XMLID_694_" class="st3" d="M41.1,27.8c-0.9,0-1.6,0.7-1.6,1.6s0.7,1.6,1.6,1.6c0.9,0,1.6-0.7,1.6-1.6S42,27.8,41.1,27.8
			z"/>
		<path id="XMLID_693_" class="st3" d="M14.4,56.7c0.9,0,1.6-0.7,1.6-1.6s-0.7-1.6-1.6-1.6s-1.6,0.7-1.6,1.6S13.6,56.7,14.4,56.7z"
			/>
		<path id="XMLID_680_" class="st2" d="M53.9,11.8c-14.5,0-26.3,10-27.2,22.5C12.9,35,0,44.9,0,58.3c0,5.6,2.2,11,6.3,15.4
			c0.8,3.3-0.2,6.8-2.6,9.2c-0.5,0.5-0.6,1.1-0.3,1.7c0.2,0.6,0.8,1,1.5,1c4.6,0,9-1.8,12.3-5c3.2,1.1,7.4,1.7,11.2,1.7
			c14.4,0,26.3-10,27.2-22.5c3.4-0.1,6.9-0.8,9.6-1.7c3.3,3.2,7.7,5,12.3,5c0.6,0,1.2-0.4,1.5-1c0.2-0.6,0.1-1.3-0.3-1.7
			c-2.4-2.4-3.4-5.9-2.6-9.2c4-4.3,6.3-9.7,6.3-15.4C82.2,21.9,68.2,11.8,53.9,11.8z M28.3,79.2c-3.8,0-8.1-0.7-11-1.9
			c-0.6-0.2-1.3-0.1-1.8,0.4c-1.9,2.1-4.5,3.6-7.2,4.3c1.5-2.9,1.9-6.3,1-9.6c-0.1-0.3-0.2-0.5-0.4-0.7C5.2,68,3.2,63.2,3.2,58.3
			c0-11.3,11.5-20.9,25-20.9c12.8,0,24.1,8.9,24.1,20.9C52.3,69.8,41.5,79.2,28.3,79.2z M73.3,49.3c-0.2,0.2-0.3,0.4-0.4,0.7
			c-0.9,3.2-0.5,6.7,1,9.6c-2.7-0.7-5.3-2.2-7.2-4.3c-0.5-0.5-1.2-0.7-1.8-0.4c-2.5,1-6.1,1.7-9.5,1.9c-0.5-6.1-3.5-11.8-8.7-16
			h20.9c0.9,0,1.6-0.7,1.6-1.6c0-0.9-0.7-1.6-1.6-1.6H41.9c-3.6-1.9-7.7-2.9-11.9-3.2C30.8,23.5,41.3,15,53.9,15
			c13.6,0,25,9.6,25,20.9C79,40.8,77,45.5,73.3,49.3z"/>
		<path id="XMLID_678_" class="st3" d="M41.1,53.5H20.9c-0.9,0-1.6,0.7-1.6,1.6c0,0.9,0.7,1.6,1.6,1.6h20.2c0.9,0,1.6-0.7,1.6-1.6
			C42.7,54.2,42,53.5,41.1,53.5z"/>
		<path id="XMLID_674_" class="st2" d="M41.1,63.1H14.4c-0.9,0-1.6,0.7-1.6,1.6c0,0.9,0.7,1.6,1.6,1.6h26.6c0.9,0,1.6-0.7,1.6-1.6
			C42.7,63.9,42,63.1,41.1,63.1z"/>
		<path id="XMLID_673_" class="st3" d="M67.7,27.8H47.5c-0.9,0-1.6,0.7-1.6,1.6c0,0.9,0.7,1.6,1.6,1.6h20.2c0.9,0,1.6-0.7,1.6-1.6
			C69.3,28.5,68.6,27.8,67.7,27.8z"/>
	</g>
</g>
<g id="developing_x5F_realtionships" class="st0">
	<g class="st1">
		<path id="XMLID_721_" class="st2" d="M58.5,49.1l-8.5-14.7c3.7-2.7,6.2-7.1,6.2-12.1c0-8.3-6.7-15-15-15s-15,6.7-15,15
			s6.7,15,15,15c2.2,0,4.2-0.5,6.1-1.3l8.5,14.7c0.3,0.5,0.8,0.8,1.4,0.8c0.3,0,0.5-0.1,0.8-0.2C58.7,50.9,59,49.9,58.5,49.1z
			 M30.9,28c-0.9-1.7-1.4-3.6-1.4-5.6c0-6.5,5.3-11.8,11.8-11.8S53,15.8,53,22.3c0,2-0.5,3.9-1.4,5.6c-0.8-1.4-2.2-2.5-3.9-2.8
			l-0.5-0.1c0.1-0.5,0.2-1,0.2-1.6v-1.4c0-3.4-2.8-6.1-6.1-6.1c-3.4,0-6.1,2.8-6.1,6.1v1.4c0,0.5,0.1,1.1,0.2,1.6l-0.5,0.1
			C33.1,25.5,31.7,26.5,30.9,28z M44.2,22.1v1.4c0,1.6-1.3,2.9-2.9,2.9s-2.9-1.3-2.9-2.9v-1.4c0-1.6,1.3-2.9,2.9-2.9
			S44.2,20.5,44.2,22.1z M49.2,31.1c-2.1,1.9-4.9,3.1-7.9,3.1c-3.1,0-5.8-1.2-7.9-3.1v-0.2c0-1.2,0.9-2.3,2.1-2.5L37,28
			c1.1,1,2.6,1.7,4.2,1.7c1.6,0,3.1-0.6,4.2-1.7l1.7,0.3c1.2,0.2,2.1,1.3,2.1,2.5V31.1z"/>
		<path id="XMLID_714_" class="st2" d="M67.1,59c-7.7,0-14.1,5.9-14.9,13.4h-10c-0.9,0-1.6,0.7-1.6,1.6s0.7,1.6,1.6,1.6h10
			C53,83.1,59.3,89,67.1,89c8.3,0,15-6.7,15-15S75.3,59,67.1,59z M75,82.7c-2.1,1.9-4.9,3.1-7.9,3.1c-3.1,0-5.8-1.2-7.9-3.1v-0.2
			c0-1.2,0.9-2.3,2.1-2.5l1.7-0.3c1.1,1,2.6,1.7,4.2,1.7c1.6,0,3.1-0.6,4.2-1.7l1.7,0.3c1.2,0.2,2.1,1.3,2.1,2.5V82.7z M64.1,75.2
			v-1.4c0-1.6,1.3-2.9,2.9-2.9c1.6,0,2.9,1.3,2.9,2.9v1.4c0,1.6-1.3,2.9-2.9,2.9C65.4,78.1,64.1,76.8,64.1,75.2z M77.4,79.6
			c-0.8-1.4-2.2-2.5-3.9-2.8L73,76.7c0.1-0.5,0.2-1,0.2-1.6v-1.4c0-3.4-2.8-6.1-6.1-6.1c-3.4,0-6.1,2.8-6.1,6.1v1.4
			c0,0.5,0.1,1.1,0.2,1.6l-0.5,0.1c-1.7,0.3-3.1,1.4-3.9,2.8C55.8,78,55.3,76,55.3,74c0-6.5,5.3-11.8,11.8-11.8
			c6.5,0,11.8,5.3,11.8,11.8C78.9,76,78.3,78,77.4,79.6z"/>
		<path id="XMLID_707_" class="st2" d="M21.2,60.2l8-13.9c0.4-0.8,0.2-1.7-0.6-2.2c-0.8-0.4-1.7-0.2-2.2,0.6l-8.4,14.5
			c-0.9-0.2-1.8-0.2-2.7-0.2c-8.3,0-15,6.7-15,15s6.7,15,15,15s15-6.7,15-15C30.4,67.8,26.6,62.5,21.2,60.2z M23.3,82.7
			c-2.1,1.9-4.9,3.1-7.9,3.1c-3.1,0-5.8-1.2-7.9-3.1v-0.2c0-1.2,0.9-2.3,2.1-2.5l1.7-0.3c1.1,1,2.6,1.7,4.2,1.7
			c1.6,0,3.1-0.6,4.2-1.7l1.7,0.3c1.2,0.2,2.1,1.3,2.1,2.5V82.7z M12.4,75.2v-1.4c0-1.6,1.3-2.9,2.9-2.9s2.9,1.3,2.9,2.9v1.4
			c0,1.6-1.3,2.9-2.9,2.9S12.4,76.8,12.4,75.2z M25.8,79.6c-0.8-1.4-2.2-2.5-3.9-2.8l-0.5-0.1c0.1-0.5,0.2-1,0.2-1.6v-1.4
			c0-3.4-2.8-6.1-6.1-6.1s-6.1,2.8-6.1,6.1v1.4c0,0.5,0.1,1.1,0.2,1.6L9,76.8c-1.7,0.3-3.1,1.4-3.9,2.8C4.1,78,3.6,76,3.6,74
			c0-6.5,5.3-11.8,11.8-11.8S27.2,67.5,27.2,74C27.2,76,26.7,78,25.8,79.6z"/>
		<path id="XMLID_704_" class="st3" d="M37.2,72.9c-0.3-0.3-0.7-0.5-1.1-0.5s-0.8,0.2-1.1,0.5c-0.3,0.3-0.5,0.7-0.5,1.1
			s0.2,0.8,0.5,1.1c0.3,0.3,0.7,0.5,1.1,0.5s0.8-0.2,1.1-0.5c0.3-0.3,0.5-0.7,0.5-1.1S37.5,73.2,37.2,72.9z"/>
		<path id="XMLID_700_" class="st3" d="M61,53.9c-0.3-0.3-0.7-0.5-1.1-0.5c-0.4,0-0.8,0.2-1.1,0.5c-0.3,0.3-0.5,0.7-0.5,1.1
			c0,0.4,0.2,0.8,0.5,1.1s0.7,0.5,1.1,0.5c0.4,0,0.8-0.2,1.1-0.5c0.3-0.3,0.5-0.7,0.5-1.1C61.4,54.6,61.3,54.2,61,53.9z"/>
		<path id="XMLID_697_" class="st3" d="M32,39.1c-0.3-0.3-0.7-0.5-1.1-0.5c-0.4,0-0.8,0.2-1.1,0.5c-0.3,0.3-0.5,0.7-0.5,1.1
			c0,0.4,0.2,0.8,0.5,1.1c0.3,0.3,0.7,0.5,1.1,0.5c0.4,0,0.8-0.2,1.1-0.5c0.3-0.3,0.5-0.7,0.5-1.1C32.5,39.8,32.3,39.4,32,39.1z"/>
	</g>
</g>
<g id="problem_x5F_solving" class="st0">
	<g class="st1">
		<path id="XMLID_737_" class="st2" d="M43.3,19.7c-15.1,0-26.7,13.4-24.4,28.5c-4.6,13.6-4.6,13.1-4.6,14.5c0,3.4,2.6,6.1,5.9,6.3
			c0,0,1.6,0,1.6,0v2c0,0.7,0.6,1.3,1.3,1.3c0.7,0,1.3-0.6,1.3-1.3v-3.2c0-0.7-0.6-1.3-1.3-1.3l-2.8,0c-1.9-0.1-3.4-1.7-3.4-3.7
			c0-0.9-0.2-0.1,4.5-14c0.1-0.2,0.1-0.4,0.1-0.6c-2.3-13.5,8.2-25.9,22-25.8C61.3,22.3,71.3,42,61.8,56.8c-1.7,2.7-2.7,5.9-2.7,9.2
			v23c0,0.1-0.1,0.2-0.2,0.2H37.3c-0.1,0-0.2-0.1-0.2-0.2V81c0-0.8-0.7-1.4-1.5-1.3L27.8,81c-1.9-0.1-3.4-1.6-3.4-3.5V76
			c0-0.7-0.6-1.3-1.3-1.3c-0.7,0-1.3,0.6-1.3,1.3v1.5c0,3.3,2.7,6,6,6c0.2,0-0.2,0.1,6.6-1.1v6.6c0,1.5,1.2,2.7,2.7,2.7H59
			c1.5,0,2.7-1.2,2.7-2.7V66c0-2.8,0.8-5.5,2.3-7.8C74.7,41.4,63.1,19.8,43.3,19.7z"/>
		<path id="XMLID_734_" class="st2" d="M35.2,29.7c-0.6-0.4-1.4-0.3-1.8,0.3c-4.5,6.4-1.5,15.4,5.9,17.8v17.6c0,2.6,2.1,4.7,4.7,4.7
			h5.7c2,0,3.7-1.7,3.7-3.7c0-2-1.7-3.7-3.7-3.7h-3v-2.6h3c2,0,3.7-1.7,3.7-3.7c0-2-1.7-3.7-3.7-3.7h-3v-4.9c4.7-1.6,8-6,8-11.1
			c0-8.9-9.4-14.4-17.1-10.4c-0.6,0.3-0.9,1.1-0.6,1.7c0.3,0.6,1.1,0.9,1.7,0.6c6-3.1,13.4,1.2,13.4,8.2c0,3.7-2.3,7-5.5,8.4
			c-6,2.7-12.9-1.8-12.9-8.4c0-1.9,0.6-3.7,1.6-5.2C36,30.9,35.8,30.1,35.2,29.7z M42,48.4c0.7,0.1,1.5,0.1,2.3,0v5.6
			c0,0.7,0.6,1.3,1.3,1.3h4.3c0.6,0,1.1,0.5,1.1,1.1c0,0.6-0.5,1.1-1.1,1.1h-4.3c-0.7,0-1.3,0.6-1.3,1.3v5.2c0,0.7,0.6,1.3,1.3,1.3
			h4.3c0.6,0,1.1,0.5,1.1,1.1c0,0.6-0.5,1.1-1.1,1.1h-5.7c-1.2,0-2.2-1-2.2-2.2V48.4z"/>
		<path id="XMLID_731_" class="st2" d="M44.2,37.3c1.8-0.5,3.1-2.1,3.1-4.1c0-2.3-1.9-4.3-4.3-4.3c-2.4,0-4.3,1.9-4.3,4.3
			C38.8,36,41.5,38,44.2,37.3z M41.4,33.2c0-0.9,0.8-1.7,1.7-1.7s1.7,0.8,1.7,1.7c0,0.9-0.8,1.7-1.7,1.7S41.4,34.1,41.4,33.2z"/>
		<path id="XMLID_730_" class="st3" d="M41.2,16.4c0.7,0,1.3-0.6,1.3-1.3V7.6c0-0.7-0.6-1.3-1.3-1.3c-0.7,0-1.3,0.6-1.3,1.3v7.5
			C39.9,15.8,40.5,16.4,41.2,16.4z"/>
		<path id="XMLID_729_" class="st3" d="M22.1,21.6c0.2,0.4,0.7,0.6,1.1,0.6c1,0,1.6-1.1,1.1-1.9l-3.8-6.5c-0.4-0.6-1.1-0.8-1.7-0.5
			c-0.6,0.4-0.8,1.1-0.5,1.7L22.1,21.6z"/>
		<path id="XMLID_728_" class="st3" d="M11.2,33.9l-6.5-3.8C4,29.8,3.3,30,2.9,30.6c-0.4,0.6-0.1,1.4,0.5,1.7c7,4.1,6.7,3.9,7.1,3.9
			C11.8,36.3,12.3,34.6,11.2,33.9z"/>
		<path id="XMLID_727_" class="st3" d="M59.2,22.2c0.4,0,0.9-0.2,1.1-0.6l3.8-6.5c0.4-0.6,0.1-1.4-0.5-1.7c-0.6-0.4-1.4-0.1-1.7,0.5
			l-3.8,6.5C57.6,21.2,58.2,22.2,59.2,22.2z"/>
		<path id="XMLID_726_" class="st3" d="M79.5,30.6c-0.4-0.6-1.1-0.8-1.7-0.5l-6.5,3.8c-0.6,0.4-0.8,1.1-0.5,1.7
			c0.4,0.6,1.1,0.8,1.7,0.5l6.5-3.8C79.6,32,79.8,31.2,79.5,30.6z"/>
	</g>
</g>
<g id="industry_x5F_experts" class="st0">
	<g class="st1">
		<path id="XMLID_750_" class="st2" d="M17.6,68.1c-1.1,0-2.1,0.3-3,0.8c-4.8-6.1-7.4-13.7-7.4-21.5c0-19.3,15.7-35,35-35
			c2.3,0,4.7,0.2,7,0.7c0.8,0.2,1.6-0.4,1.7-1.2s-0.4-1.6-1.2-1.7c-2.5-0.5-5-0.8-7.6-0.8c-10.1,0-19.7,4-26.9,11.1
			S4.2,37.2,4.2,47.3c0,8.5,2.9,16.9,8.2,23.5c-0.7,1-1,2.2-1,3.5c0,1.7,0.6,3.2,1.8,4.4c1.2,1.2,2.7,1.8,4.4,1.8s3.2-0.6,4.4-1.8
			c1.2-1.2,1.8-2.7,1.8-4.4c0-1.7-0.6-3.2-1.8-4.4C20.8,68.8,19.2,68.1,17.6,68.1z M19.9,76.7c-0.6,0.6-1.4,1-2.3,1s-1.7-0.3-2.3-1
			s-1-1.4-1-2.3c0-0.9,0.3-1.7,1-2.3c0.6-0.6,1.4-1,2.3-1s1.7,0.3,2.3,1c0.6,0.6,1,1.4,1,2.3C20.8,75.2,20.5,76,19.9,76.7z"/>
		<path id="XMLID_747_" class="st2" d="M72,23.8c1.6-2.4,1.4-5.7-0.8-7.9c-1.2-1.2-2.7-1.8-4.4-1.8s-3.2,0.6-4.4,1.8
			c-1.2,1.2-1.8,2.7-1.8,4.4s0.6,3.2,1.8,4.4s2.7,1.8,4.4,1.8c1.1,0,2.1-0.3,3-0.8c4.8,6.1,7.4,13.7,7.4,21.5c0,19.3-15.7,35-35,35
			c-2.3,0-4.7-0.2-6.9-0.7c-0.8-0.2-1.6,0.4-1.7,1.2c-0.2,0.8,0.4,1.6,1.2,1.7c2.5,0.5,5,0.7,7.5,0.7c10.1,0,19.7-4,26.9-11.1
			s11.1-16.7,11.1-26.9C80.2,38.8,77.3,30.5,72,23.8z M64.5,22.6c-0.6-0.6-1-1.4-1-2.3c0-0.9,0.3-1.7,1-2.3c0.6-0.6,1.4-1,2.3-1
			s1.7,0.3,2.3,1c1.3,1.3,1.3,3.3,0,4.6c-0.6,0.6-1.4,1-2.3,1C65.9,23.6,65.1,23.3,64.5,22.6z"/>
		<path id="XMLID_744_" class="st2" d="M36.1,72.9c0,0.8,0.7,1.5,1.5,1.5h9.3c0.8,0,1.5-0.7,1.5-1.5V70c2-0.5,3.8-1.3,5.6-2.3l2,2
			c0.3,0.3,0.7,0.4,1.1,0.4c0.4,0,0.8-0.2,1-0.4l6.6-6.6c0.6-0.6,0.6-1.5,0-2.1l-2-2c1-1.8,1.8-3.6,2.3-5.6h2.9
			c0.8,0,1.5-0.7,1.5-1.5v-9.3c0-0.8-0.7-1.5-1.5-1.5h-2.9c-0.5-2-1.3-3.8-2.3-5.6l2-2c0.3-0.3,0.4-0.7,0.4-1.1
			c0-0.4-0.2-0.8-0.4-1.1L58,25c-0.6-0.6-1.5-0.6-2.1,0l-2,2c-1.8-1-3.6-1.8-5.6-2.3v-2.9c0-0.8-0.7-1.5-1.5-1.5h-9.3
			c-0.8,0-1.5,0.7-1.5,1.5v2.9c-2,0.5-3.8,1.3-5.6,2.3l-2-2c-0.6-0.6-1.5-0.6-2.1,0l-6.6,6.6c-0.3,0.3-0.4,0.7-0.4,1
			s0.2,0.8,0.4,1.1l2,2c-1,1.8-1.8,3.6-2.3,5.6h-2.9c-0.8,0-1.5,0.7-1.5,1.5l0,9.3c0,0.4,0.2,0.8,0.4,1.1s0.7,0.4,1.1,0.4h2.9
			c0.5,2,1.3,3.8,2.3,5.6l-2,2c-0.6,0.6-0.6,1.5,0,2.1l6.6,6.6c0.3,0.3,0.7,0.4,1,0.4h0c0.4,0,0.8-0.2,1-0.4l2-2
			c1.8,1,3.6,1.8,5.6,2.3V72.9z M31.1,64.6c-0.6-0.4-1.4-0.3-1.9,0.2l-1.8,1.8l-4.5-4.5l1.8-1.8c0.5-0.5,0.6-1.3,0.2-1.9
			c-1.3-2.1-2.3-4.4-2.8-6.8c-0.1-0.7-0.8-1.2-1.5-1.2h-2.5l0-6.3h2.5c0.7,0,1.3-0.5,1.5-1.2c0.5-2.4,1.5-4.7,2.8-6.8
			c0.4-0.6,0.3-1.4-0.2-1.9L23,32.6l4.5-4.5l1.8,1.8c0.5,0.5,1.3,0.6,1.9,0.2c2.1-1.3,4.4-2.3,6.8-2.8c0.7-0.1,1.2-0.8,1.2-1.5v-2.5
			h6.3v2.5c0,0.7,0.5,1.3,1.2,1.5c2.4,0.5,4.7,1.5,6.8,2.8c0.6,0.4,1.4,0.3,1.9-0.2l1.8-1.8l4.5,4.5l-1.8,1.8
			c-0.5,0.5-0.6,1.3-0.2,1.9c1.3,2.1,2.3,4.4,2.8,6.8c0.1,0.7,0.8,1.2,1.5,1.2h2.6v6.3h-2.6c-0.7,0-1.3,0.5-1.5,1.2
			c-0.5,2.4-1.5,4.7-2.8,6.8c-0.4,0.6-0.3,1.4,0.2,1.9l1.8,1.8L57,66.6l-1.8-1.8c-0.5-0.5-1.3-0.6-1.9-0.2c-2.1,1.3-4.4,2.3-6.8,2.8
			c-0.7,0.1-1.2,0.8-1.2,1.5v2.6H39v-2.6c0-0.7-0.5-1.3-1.2-1.5C35.4,66.9,33.2,65.9,31.1,64.6z"/>
		<path id="XMLID_741_" class="st3" d="M54.4,47.3c0-6.8-5.5-12.3-12.3-12.3s-12.3,5.5-12.3,12.3s5.5,12.3,12.3,12.3
			S54.4,54.1,54.4,47.3z M32.9,47.3c0-5.1,4.2-9.3,9.3-9.3s9.3,4.2,9.3,9.3s-4.2,9.3-9.3,9.3S32.9,52.5,32.9,47.3z"/>
		<path id="XMLID_740_" class="st3" d="M55.9,15c0.4,0,0.8-0.2,1-0.4c0.3-0.3,0.4-0.7,0.4-1.1c0-0.4-0.2-0.8-0.4-1
			c-0.3-0.3-0.7-0.4-1-0.4c-0.4,0-0.8,0.2-1,0.4c-0.3,0.3-0.4,0.7-0.4,1c0,0.4,0.2,0.8,0.4,1.1C55.1,14.8,55.5,15,55.9,15z"/>
		<path id="XMLID_739_" class="st3" d="M28.6,79.8c-0.4,0-0.8,0.2-1,0.4s-0.4,0.7-0.4,1c0,0.4,0.2,0.8,0.4,1s0.7,0.4,1,0.4
			s0.8-0.2,1-0.4s0.4-0.7,0.4-1s-0.2-0.8-0.4-1S29,79.8,28.6,79.8z"/>
	</g>
</g>
</svg>
