<?xml version="1.0" encoding="utf-8"?>
<!-- Generator: Adobe Illustrator 24.1.2, SVG Export Plug-In . SVG Version: 6.00 Build 0)  -->
<svg version="1.1" id="Layer_1" xmlns="http://www.w3.org/2000/svg" xmlns:xlink="http://www.w3.org/1999/xlink" x="0px" y="0px"
	 viewBox="0 0 82.2 73.8" style="enable-background:new 0 0 82.2 73.8;" xml:space="preserve">
<style type="text/css">
	.st0{fill:#D80650;}
	.st1{fill:#001E67;}
</style>
<path id="XMLID_694_" class="st0" d="M41.1,16.1c-0.9,0-1.6,0.7-1.6,1.6s0.7,1.6,1.6,1.6c0.9,0,1.6-0.7,1.6-1.6S42,16.1,41.1,16.1z"
	/>
<path id="XMLID_693_" class="st0" d="M14.4,44.9c0.9,0,1.6-0.7,1.6-1.6s-0.7-1.6-1.6-1.6s-1.6,0.7-1.6,1.6S13.6,44.9,14.4,44.9z"/>
<path id="XMLID_680_" class="st1" d="M53.9,0C39.5,0,27.6,10,26.7,22.5C12.9,23.2,0,33.1,0,46.5c0,5.6,2.2,11,6.3,15.4
	c0.8,3.3-0.2,6.8-2.6,9.2c-0.5,0.5-0.6,1.1-0.3,1.7c0.2,0.6,0.8,1,1.5,1c4.6,0,9-1.8,12.3-5c3.2,1.1,7.4,1.7,11.2,1.7
	c14.4,0,26.3-10,27.2-22.5c3.4-0.1,6.9-0.8,9.6-1.7c3.3,3.2,7.7,5,12.3,5c0.6,0,1.2-0.4,1.5-1c0.2-0.6,0.1-1.3-0.3-1.7
	c-2.4-2.4-3.4-5.9-2.6-9.2c4-4.3,6.3-9.7,6.3-15.4C82.2,10.1,68.2,0,53.9,0z M28.3,67.4c-3.8,0-8.1-0.7-11-1.9
	c-0.6-0.2-1.3-0.1-1.8,0.4c-1.9,2.1-4.5,3.6-7.2,4.3c1.5-2.9,1.9-6.3,1-9.6C9.2,60.4,9,60.2,8.9,60c-3.6-3.8-5.6-8.5-5.6-13.4
	c0-11.3,11.5-20.9,25-20.9c12.8,0,24.1,8.9,24.1,20.9C52.3,58.1,41.5,67.4,28.3,67.4z M73.3,37.5c-0.2,0.2-0.3,0.4-0.4,0.7
	c-0.9,3.2-0.5,6.7,1,9.6c-2.7-0.7-5.3-2.2-7.2-4.3c-0.5-0.5-1.2-0.7-1.8-0.4c-2.5,1-6.1,1.7-9.5,1.9c-0.5-6.1-3.5-11.8-8.7-16h20.9
	c0.9,0,1.6-0.7,1.6-1.6s-0.7-1.6-1.6-1.6H41.9c-3.6-1.9-7.7-2.9-11.9-3.2C30.9,11.8,41.3,3.3,54,3.3c13.6,0,25,9.6,25,20.9
	C79,29,77,33.7,73.3,37.5z"/>
<path id="XMLID_678_" class="st0" d="M41.1,41.7H20.9c-0.9,0-1.6,0.7-1.6,1.6c0,0.9,0.7,1.6,1.6,1.6h20.2c0.9,0,1.6-0.7,1.6-1.6
	C42.7,42.5,42,41.7,41.1,41.7z"/>
<path id="XMLID_674_" class="st1" d="M41.1,51.4H14.4c-0.9,0-1.6,0.7-1.6,1.6c0,0.9,0.7,1.6,1.6,1.6H41c0.9,0,1.6-0.7,1.6-1.6
	C42.7,52.1,42,51.4,41.1,51.4z"/>
<path id="XMLID_673_" class="st0" d="M67.7,16.1H47.5c-0.9,0-1.6,0.7-1.6,1.6s0.7,1.6,1.6,1.6h20.2c0.9,0,1.6-0.7,1.6-1.6
	C69.3,16.8,68.6,16.1,67.7,16.1z"/>
</svg>
