<?xml version="1.0" encoding="utf-8"?>
<!-- Generator: Adobe Illustrator 24.1.2, SVG Export Plug-In . SVG Version: 6.00 Build 0)  -->
<svg version="1.1" id="Layer_1" xmlns="http://www.w3.org/2000/svg" xmlns:xlink="http://www.w3.org/1999/xlink" x="0px" y="0px"
	 viewBox="0 0 78.9 94.7" style="enable-background:new 0 0 78.9 94.7;" xml:space="preserve">
<style type="text/css">
	.st0{fill:#001E67;}
	.st1{fill:#D80650;}
</style>
<g id="creative">
	<g id="XMLID_41_">
		<path id="XMLID_606_" class="st0" d="M39.5,20.4c-7.1,0-13.5,3.1-17.9,7.9c-0.3,0.4-0.5,0.9-0.3,1.4l0,0c0.3,1,1.6,1.3,2.4,0.5
			c3.9-4.3,9.5-6.9,15.8-6.9c11.8,0,21.4,9.5,21.4,21.4c0,6.2-2.6,12.1-7.3,16.1c-0.1,0.1-0.3,0.3-0.3,0.4c-3.4,3.7-4,9.7-4.1,12.6
			H29.8c-0.1-2.9-0.7-9.2-4.4-13c-4.6-4-7.4-9.9-7.4-16.1c0-3,0.6-5.9,1.8-8.6c0.2-0.4,0.1-0.9-0.1-1.2l0,0c-0.6-1-2-1-2.5,0.1
			c-1.3,3-2.1,6.3-2.1,9.8c0,7,3.1,13.8,8.2,18.3c3.9,3.9,3.5,12.1,3.4,12.2c0,0.4,0.1,0.8,0.4,1.1c0.3,0.3,0.7,0.4,1.1,0.4h22.3
			c0.4,0,0.8-0.2,1.1-0.4c0.3-0.3,0.4-0.7,0.4-1.1c0-0.1-0.4-8.3,3.4-12.2c0.1-0.1,0.2-0.2,0.3-0.3c5.1-4.6,8.1-11.2,8.1-18
			C63.9,31.4,52.9,20.4,39.5,20.4z"/>
		<path id="XMLID_605_" class="st0" d="M41.5,26.7c-0.6-0.1-1.2-0.1-1.8-0.1s-1.1,0.2-1.4,0.7c-0.7,1,0.2,2.3,1.2,2.3
			c0.6,0,1.1,0,1.7,0.1c0.8,0.1,1.5-0.4,1.6-1.2l0,0C42.9,27.6,42.3,26.8,41.5,26.7z"/>
		<path id="XMLID_604_" class="st0" d="M44.5,28.7C44.5,28.7,44.4,28.8,44.5,28.7c-0.4,0.8,0.1,1.7,0.8,2
			c5.9,2.3,10.1,8.1,10.1,14.7c0,0.5,0.2,1,0.7,1.3c1,0.7,2.3-0.2,2.3-1.2c0.1-8-4.9-14.9-12-17.6C45.6,27.6,44.8,28,44.5,28.7z"/>
		<path id="XMLID_601_" class="st0" d="M49.2,78.5H29.7c-2,0-3.7,1.7-3.7,3.7s1.7,3.7,3.7,3.7h19.4c2.1-0.1,3.8-1.7,3.8-3.7
			S51.2,78.5,49.2,78.5z M49.2,82.8H29.7c-0.4,0-0.7-0.3-0.7-0.7c0-0.4,0.3-0.7,0.7-0.7h19.4c0.4,0,0.7,0.3,0.7,0.7
			S49.5,82.8,49.2,82.8z"/>
		<path id="XMLID_595_" class="st0" d="M46.3,87.3H32.6c-2,0-3.7,1.7-3.7,3.7s1.7,3.7,3.7,3.7h13.7c2,0,3.7-1.7,3.7-3.7
			C50,88.9,48.3,87.3,46.3,87.3z M46.3,91.6H32.6c-0.4,0-0.7-0.3-0.7-0.7s0.3-0.7,0.7-0.7h13.7c0.4,0,0.7,0.3,0.7,0.7
			S46.6,91.6,46.3,91.6z"/>
		<path id="XMLID_594_" class="st1" d="M39.5,13.1c0.9,0,1.5-0.7,1.5-1.5V1.5C41,0.7,40.3,0,39.5,0S38,0.7,38,1.5v10.2
			C38,12.4,38.7,13.1,39.5,13.1z"/>
		<path id="XMLID_593_" class="st1" d="M64.2,7.5c-0.7-0.5-1.6-0.3-2,0.4l-5.6,8.4C56.1,17,56.3,18,57,18.4c0.3,0.2,0.5,0.3,0.8,0.3
			c0.5,0,1-0.3,1.2-0.7l5.6-8.4C65.1,8.9,64.9,8,64.2,7.5z"/>
		<path id="XMLID_592_" class="st1" d="M21.7,18.3c0.3,0,0.5-0.1,0.8-0.3c0.7-0.4,0.9-1.4,0.4-2.1l-5.4-8.5C17,6.7,16.1,6.6,15.4,7
			c-0.7,0.4-0.9,1.4-0.4,2.1l5.4,8.5C20.7,18.1,21.1,18.3,21.7,18.3z"/>
		<path id="XMLID_591_" class="st1" d="M11.1,27.6l-8.8-4.8c-0.7-0.4-1.7-0.1-2,0.6c-0.4,0.7-0.2,1.7,0.6,2l8.8,4.8
			c0.3,0.1,0.4,0.2,0.7,0.2c0.5,0,1.1-0.3,1.3-0.8C12,28.9,11.8,27.9,11.1,27.6z"/>
		<path id="XMLID_590_" class="st1" d="M78.8,23.4c-0.4-0.7-1.3-1-2-0.6l-8.9,4.8c-0.7,0.4-1,1.3-0.6,2c0.3,0.5,0.8,0.8,1.3,0.8
			c0.3,0,0.5-0.1,0.7-0.2l8.9-4.8C78.9,25.1,79.1,24.1,78.8,23.4z"/>
	</g>
</g>
</svg>
