<?xml version="1.0" encoding="utf-8"?>
<!-- Generator: Adobe Illustrator 24.1.2, SVG Export Plug-In . SVG Version: 6.00 Build 0)  -->
<svg version="1.1" id="Layer_1" xmlns="http://www.w3.org/2000/svg" xmlns:xlink="http://www.w3.org/1999/xlink" x="0px" y="0px"
	 viewBox="0 0 76 76" style="enable-background:new 0 0 76 76;" xml:space="preserve">
<style type="text/css">
	.st0{fill:#001E67;}
	.st1{fill:#D80650;}
</style>
<g id="industry_x5F_experts">
	<g id="XMLID_1_">
		<path id="XMLID_750_" class="st0" d="M13.4,58.8c-1.1,0-2.1,0.3-3,0.8C5.6,53.4,3,45.8,3,38C3,18.7,18.7,3,38,3
			c2.3,0,4.7,0.2,7,0.7c0.8,0.2,1.6-0.4,1.7-1.2s-0.4-1.6-1.2-1.7C43.1,0.3,40.5,0,38,0C27.9,0,18.3,4,11.1,11.1S0,27.9,0,38
			c0,8.5,2.9,16.9,8.2,23.5c-0.7,1-1,2.2-1,3.5c0,1.7,0.6,3.2,1.8,4.4c1.2,1.2,2.7,1.8,4.4,1.8s3.2-0.6,4.4-1.8
			c1.2-1.2,1.8-2.7,1.8-4.4c0-1.7-0.6-3.2-1.8-4.4C16.6,59.4,15,58.8,13.4,58.8z M15.7,67.3c-0.6,0.6-1.4,1-2.3,1s-1.7-0.3-2.3-1
			s-1-1.4-1-2.3s0.3-1.7,1-2.3c0.6-0.6,1.4-1,2.3-1s1.7,0.3,2.3,1c0.6,0.6,1,1.4,1,2.3C16.6,65.9,16.3,66.7,15.7,67.3z"/>
		<path id="XMLID_747_" class="st0" d="M67.8,14.4c1.6-2.4,1.4-5.7-0.8-7.9c-1.2-1.2-2.7-1.8-4.4-1.8s-3.2,0.6-4.4,1.8
			C57,7.8,56.4,9.3,56.4,11s0.6,3.2,1.8,4.4s2.7,1.8,4.4,1.8c1.1,0,2.1-0.3,3-0.8C70.4,22.6,73,30.2,73,38c0,19.3-15.7,35-35,35
			c-2.3,0-4.7-0.2-6.9-0.7c-0.8-0.2-1.6,0.4-1.7,1.2c-0.2,0.8,0.4,1.6,1.2,1.7c2.5,0.5,5,0.7,7.5,0.7c10.1,0,19.7-4,26.9-11.1
			S76,48.1,76,38C76,29.5,73.1,21.1,67.8,14.4z M60.3,13.3c-0.6-0.6-1-1.4-1-2.3c0-0.9,0.3-1.7,1-2.3c0.6-0.6,1.4-1,2.3-1
			s1.7,0.3,2.3,1c1.3,1.3,1.3,3.3,0,4.6c-0.6,0.6-1.4,1-2.3,1C61.8,14.3,60.9,13.9,60.3,13.3z"/>
		<path id="XMLID_744_" class="st0" d="M31.9,63.5c0,0.8,0.7,1.5,1.5,1.5h9.3c0.8,0,1.5-0.7,1.5-1.5v-2.9c2-0.5,3.8-1.3,5.6-2.3l2,2
			c0.3,0.3,0.7,0.4,1.1,0.4c0.4,0,0.8-0.2,1-0.4l6.6-6.6c0.6-0.6,0.6-1.5,0-2.1l-2-2c1-1.8,1.8-3.6,2.3-5.6h2.9
			c0.8,0,1.5-0.7,1.5-1.5v-9.3c0-0.8-0.7-1.5-1.5-1.5h-2.9c-0.5-2-1.3-3.8-2.3-5.6l2-2c0.3-0.3,0.4-0.7,0.4-1.1s-0.2-0.8-0.4-1.1
			l-6.6-6.6c-0.6-0.6-1.5-0.6-2.1,0l-2,2c-1.8-1-3.6-1.8-5.6-2.3v-2.9c0-0.8-0.7-1.5-1.5-1.5h-9.3c-0.8,0-1.5,0.7-1.5,1.5V15
			c-2,0.5-3.8,1.3-5.6,2.3l-2-2c-0.6-0.6-1.5-0.6-2.1,0l-6.6,6.6c-0.3,0.3-0.4,0.7-0.4,1s0.2,0.8,0.4,1.1l2,2
			c-1,1.8-1.8,3.6-2.3,5.6h-2.9c-0.8,0-1.5,0.7-1.5,1.5v9.3c0,0.4,0.2,0.8,0.4,1.1s0.7,0.4,1.1,0.4h2.9c0.5,2,1.3,3.8,2.3,5.6l-2,2
			c-0.6,0.6-0.6,1.5,0,2.1l6.6,6.6c0.3,0.3,0.7,0.4,1,0.4l0,0c0.4,0,0.8-0.2,1-0.4l2-2c1.8,1,3.6,1.8,5.6,2.3v3
			C31.8,63.5,31.9,63.5,31.9,63.5z M26.9,55.2c-0.6-0.4-1.4-0.3-1.9,0.2l-1.8,1.8l-4.5-4.5l1.8-1.8c0.5-0.5,0.6-1.3,0.2-1.9
			c-1.3-2.1-2.3-4.4-2.8-6.8c-0.1-0.7-0.8-1.2-1.5-1.2H14v-6.3h2.5c0.7,0,1.3-0.5,1.5-1.2c0.5-2.4,1.5-4.7,2.8-6.8
			c0.4-0.6,0.3-1.4-0.2-1.9L18.8,23l4.5-4.5l1.8,1.8c0.5,0.5,1.3,0.6,1.9,0.2c2.1-1.3,4.4-2.3,6.8-2.8c0.7-0.1,1.2-0.8,1.2-1.5V14
			h6.3v2.5c0,0.7,0.5,1.3,1.2,1.5c2.4,0.5,4.7,1.5,6.8,2.8c0.6,0.4,1.4,0.3,1.9-0.2l1.8-1.8l4.5,4.5L55.4,25
			c-0.5,0.5-0.6,1.3-0.2,1.9c1.3,2.1,2.3,4.4,2.8,6.8c0.1,0.7,0.8,1.2,1.5,1.2H62v6.3h-2.6c-0.7,0-1.3,0.5-1.5,1.2
			c-0.5,2.4-1.5,4.7-2.8,6.8c-0.4,0.6-0.3,1.4,0.2,1.9l1.8,1.8l-4.5,4.5l-1.6-2c-0.5-0.5-1.3-0.6-1.9-0.2c-2.1,1.3-4.4,2.3-6.8,2.8
			c-0.7,0.1-1.2,0.8-1.2,1.5V62h-6.3v-2.6c0-0.7-0.5-1.3-1.2-1.5C31.3,57.5,29,56.6,26.9,55.2z"/>
		<path id="XMLID_741_" class="st1" d="M50.3,38c0-6.8-5.5-12.3-12.3-12.3S25.7,31.2,25.7,38S31.2,50.3,38,50.3S50.3,44.8,50.3,38z
			 M28.7,38c0-5.1,4.2-9.3,9.3-9.3s9.3,4.2,9.3,9.3s-4.2,9.3-9.3,9.3S28.7,43.1,28.7,38z"/>
		<path id="XMLID_740_" class="st1" d="M51.7,5.6c0.4,0,0.8-0.2,1-0.4c0.3-0.3,0.4-0.7,0.4-1.1s-0.2-0.8-0.4-1
			c-0.3-0.3-0.7-0.4-1-0.4c-0.4,0-0.8,0.2-1,0.4c-0.3,0.3-0.4,0.7-0.4,1c0,0.4,0.2,0.8,0.4,1.1C50.9,5.5,51.3,5.6,51.7,5.6z"/>
		<path id="XMLID_739_" class="st1" d="M24.4,70.4c-0.4,0-0.8,0.2-1,0.4s-0.4,0.7-0.4,1c0,0.4,0.2,0.8,0.4,1s0.7,0.4,1,0.4
			s0.8-0.2,1-0.4s0.4-0.7,0.4-1s-0.2-0.8-0.4-1S24.8,70.4,24.4,70.4z"/>
	</g>
</g>
</svg>
