<?xml version="1.0" encoding="utf-8"?>
<!-- Generator: Adobe Illustrator 24.1.2, SVG Export Plug-In . SVG Version: 6.00 Build 0)  -->
<svg version="1.1" id="Layer_1" xmlns="http://www.w3.org/2000/svg" xmlns:xlink="http://www.w3.org/1999/xlink" x="0px" y="0px"
	 viewBox="0 0 76.9 85.4" style="enable-background:new 0 0 76.9 85.4;" xml:space="preserve">
<style type="text/css">
	.st0{fill:#001E67;}
	.st1{fill:#D80650;}
</style>
<g id="problem_x5F_solving">
	<g id="XMLID_10_">
		<path id="XMLID_737_" class="st0" d="M40.6,13.3c-15.1,0-26.7,13.4-24.4,28.5c-4.6,13.6-4.6,13.1-4.6,14.5c0,3.4,2.6,6.1,5.9,6.3
			h1.6v2c0,0.7,0.6,1.3,1.3,1.3c0.7,0,1.3-0.6,1.3-1.3v-3.2c0-0.7-0.6-1.3-1.3-1.3h-2.8c-1.9-0.1-3.4-1.7-3.4-3.7
			c0-0.9-0.2-0.1,4.5-14c0.1-0.2,0.1-0.4,0.1-0.6C16.5,28.3,27,15.9,40.8,16c17.7,0,27.8,19.6,18.3,34.5c-1.7,2.7-2.7,5.9-2.7,9.2
			v23c0,0.1-0.1,0.2-0.2,0.2H34.6c-0.1,0-0.2-0.1-0.2-0.2v-8.1c0-0.8-0.7-1.4-1.5-1.3l-7.8,1.3c-1.9-0.1-3.4-1.6-3.4-3.5v-1.5
			c0-0.7-0.6-1.3-1.3-1.3c-0.7,0-1.3,0.6-1.3,1.3v1.5c0,3.3,2.7,6,6,6c0.2,0-0.2,0.1,6.6-1.1v6.6c0,1.5,1.2,2.7,2.7,2.7h21.7
			c1.5,0,2.7-1.2,2.7-2.7v-23c0-2.8,0.8-5.5,2.3-7.8C71.9,35.1,60.4,13.4,40.6,13.3z"/>
		<path id="XMLID_734_" class="st0" d="M32.5,23.4c-0.6-0.4-1.4-0.3-1.8,0.3c-4.5,6.4-1.5,15.4,5.9,17.8v17.6c0,2.6,2.1,4.7,4.7,4.7
			H47c2,0,3.7-1.7,3.7-3.7S49,56.4,47,56.4h-3v-2.6h3c2,0,3.7-1.7,3.7-3.7S49,46.4,47,46.4h-3v-4.9c4.7-1.6,8-6,8-11.1
			C52.1,21.5,42.7,16,35,20c-0.6,0.3-0.9,1.1-0.6,1.7c0.3,0.6,1.1,0.9,1.7,0.6c6-3.1,13.4,1.2,13.4,8.2c0,3.7-2.3,7-5.5,8.4
			c-6,2.7-12.9-1.8-12.9-8.4c0-1.9,0.6-3.7,1.6-5.2C33.2,24.6,33.1,23.8,32.5,23.4z M39.2,42.1c0.7,0.1,1.5,0.1,2.3,0v5.6
			c0,0.7,0.6,1.3,1.3,1.3H47c0.6,0,1.1,0.5,1.1,1.1s-0.5,1.1-1.1,1.1h-4.3c-0.7,0-1.3,0.6-1.3,1.3v5.2c0,0.7,0.6,1.3,1.3,1.3H47
			c0.6,0,1.1,0.5,1.1,1.1s-0.5,1.1-1.1,1.1h-5.7c-1.2,0-2.2-1-2.2-2.2V42.1H39.2z"/>
		<path id="XMLID_731_" class="st0" d="M41.5,30.9c1.8-0.5,3.1-2.1,3.1-4.1c0-2.3-1.9-4.3-4.3-4.3c-2.4,0-4.3,1.9-4.3,4.3
			C36.1,29.6,38.8,31.7,41.5,30.9z M38.7,26.8c0-0.9,0.8-1.7,1.7-1.7s1.7,0.8,1.7,1.7c0,0.9-0.8,1.7-1.7,1.7S38.7,27.8,38.7,26.8z"
			/>
		<path id="XMLID_730_" class="st1" d="M38.5,10.1c0.7,0,1.3-0.6,1.3-1.3V1.3c0-0.7-0.6-1.3-1.3-1.3s-1.3,0.6-1.3,1.3v7.5
			C37.2,9.5,37.7,10.1,38.5,10.1z"/>
		<path id="XMLID_729_" class="st1" d="M19.3,15.3c0.2,0.4,0.7,0.6,1.1,0.6c1,0,1.6-1.1,1.1-1.9l-3.8-6.5C17.3,6.9,16.6,6.7,16,7
			c-0.6,0.4-0.8,1.1-0.5,1.7L19.3,15.3z"/>
		<path id="XMLID_728_" class="st1" d="M8.4,27.6l-6.5-3.8c-0.6-0.4-1.4-0.1-1.7,0.5C-0.2,24.9,0,25.7,0.6,26c7,4.1,6.7,3.9,7.1,3.9
			C9.1,29.9,9.5,28.2,8.4,27.6z"/>
		<path id="XMLID_727_" class="st1" d="M56.4,15.9c0.4,0,0.9-0.2,1.1-0.6l3.8-6.5c0.4-0.6,0.1-1.4-0.5-1.7c-0.6-0.4-1.4-0.1-1.7,0.5
			L55.3,14C54.8,14.8,55.5,15.9,56.4,15.9z"/>
		<path id="XMLID_726_" class="st1" d="M76.7,24.3c-0.4-0.6-1.1-0.8-1.7-0.5l-6.5,3.8c-0.6,0.4-0.8,1.1-0.5,1.7
			c0.4,0.6,1.1,0.8,1.7,0.5l6.5-3.8C76.9,25.7,77.1,24.9,76.7,24.3z"/>
	</g>
</g>
</svg>
