<?xml version="1.0" encoding="utf-8"?>
<!-- Generator: Adobe Illustrator 24.1.2, SVG Export Plug-In . SVG Version: 6.00 Build 0)  -->
<svg version="1.1" id="Layer_1" xmlns="http://www.w3.org/2000/svg" xmlns:xlink="http://www.w3.org/1999/xlink" x="0px" y="0px"
	 viewBox="0 0 81.6 81.6" style="enable-background:new 0 0 81.6 81.6;" xml:space="preserve">
<style type="text/css">
	.st0{fill:#001E67;}
	.st1{fill:#D80650;}
</style>
<g id="developing_x5F_realtionships">
	<g id="XMLID_15_">
		<path id="XMLID_721_" class="st0" d="M58.1,41.8l-8.5-14.7c3.7-2.7,6.2-7.1,6.2-12.1c0-8.3-6.7-15-15-15s-15,6.7-15,15
			s6.7,15,15,15c2.2,0,4.2-0.5,6.1-1.3l8.5,14.7c0.3,0.5,0.8,0.8,1.4,0.8c0.3,0,0.5-0.1,0.8-0.2C58.3,43.5,58.6,42.6,58.1,41.8z
			 M30.4,20.6C29.5,18.9,29,17,29,15c0-6.5,5.3-11.8,11.8-11.8S52.6,8.5,52.6,15c0,2-0.5,3.9-1.4,5.6c-0.8-1.4-2.2-2.5-3.9-2.8
			l-0.5-0.1c0.1-0.5,0.2-1,0.2-1.6v-1.4c0-3.4-2.8-6.1-6.1-6.1c-3.4,0-6.1,2.8-6.1,6.1v1.4c0,0.5,0.1,1.1,0.2,1.6l-0.5,0.1
			C32.7,18.1,31.3,19.2,30.4,20.6z M43.8,14.7v1.4c0,1.6-1.3,2.9-2.9,2.9S38,17.7,38,16.1v-1.4c0-1.6,1.3-2.9,2.9-2.9
			S43.8,13.1,43.8,14.7z M48.8,23.7c-2.1,1.9-4.9,3.1-7.9,3.1c-3.1,0-5.8-1.2-7.9-3.1v-0.2c0-1.2,0.9-2.3,2.1-2.5l1.7-0.3
			c1.1,1,2.6,1.7,4.2,1.7c1.6,0,3.1-0.6,4.2-1.7l1.7,0.3c1.2,0.2,2.1,1.3,2.1,2.5v0.2H48.8z"/>
		<path id="XMLID_714_" class="st0" d="M66.7,51.7c-7.7,0-14.1,5.9-14.9,13.4h-10c-0.9,0-1.6,0.7-1.6,1.6s0.7,1.6,1.6,1.6h10
			c0.8,7.5,7.2,13.4,14.9,13.4c8.3,0,15-6.7,15-15S74.9,51.7,66.7,51.7z M74.6,75.4c-2.1,1.9-4.9,3.1-7.9,3.1
			c-3.1,0-5.8-1.2-7.9-3.1v-0.2c0-1.2,0.9-2.3,2.1-2.5l1.7-0.3c1.1,1,2.6,1.7,4.2,1.7s3.1-0.6,4.2-1.7l1.7,0.3
			c1.2,0.2,2.1,1.3,2.1,2.5v0.2H74.6z M63.7,67.8v-1.4c0-1.6,1.3-2.9,2.9-2.9s2.9,1.3,2.9,2.9v1.4c0,1.6-1.3,2.9-2.9,2.9
			C65,70.8,63.7,69.4,63.7,67.8z M77,72.3c-0.8-1.4-2.2-2.5-3.9-2.8l-0.5-0.1c0.1-0.5,0.2-1,0.2-1.6v-1.4c0-3.4-2.8-6.1-6.1-6.1
			c-3.4,0-6.1,2.8-6.1,6.1v1.4c0,0.5,0.1,1.1,0.2,1.6l-0.5,0.1c-1.7,0.3-3.1,1.4-3.9,2.8c-0.9-1.7-1.4-3.6-1.4-5.6
			c0-6.5,5.3-11.8,11.8-11.8s11.8,5.3,11.8,11.8C78.5,68.7,77.9,70.6,77,72.3z"/>
		<path id="XMLID_707_" class="st0" d="M20.8,52.8l8-13.9c0.4-0.8,0.2-1.7-0.6-2.2c-0.8-0.4-1.7-0.2-2.2,0.6l-8.4,14.5
			c-0.9-0.2-1.8-0.2-2.7-0.2c-8.3,0-15,6.7-15,15s6.7,15,15,15s15-6.7,15-15C30,60.5,26.2,55.1,20.8,52.8z M22.9,75.4
			c-2.1,1.9-4.9,3.1-7.9,3.1c-3.1,0-5.8-1.2-7.9-3.1v-0.2c0-1.2,0.9-2.3,2.1-2.5l1.7-0.3c1.1,1,2.6,1.7,4.2,1.7s3.1-0.6,4.2-1.7
			l1.7,0.3c1.2,0.2,2.1,1.3,2.1,2.5v0.2H22.9z M12,67.8v-1.4c0-1.6,1.3-2.9,2.9-2.9s2.9,1.3,2.9,2.9v1.4c0,1.6-1.3,2.9-2.9,2.9
			S12,69.4,12,67.8z M25.4,72.3c-0.8-1.4-2.2-2.5-3.9-2.8L21,69.4c0.1-0.5,0.2-1,0.2-1.6v-1.4c0-3.4-2.8-6.1-6.1-6.1
			S8.9,63,8.9,66.4v1.4c0,0.5,0.1,1.1,0.2,1.6l-0.5,0.1c-1.7,0.3-3.1,1.4-3.9,2.8c-0.9-1.7-1.4-3.6-1.4-5.6
			c0-6.5,5.3-11.8,11.8-11.8s11.8,5.3,11.8,11.8C26.8,68.7,26.3,70.6,25.4,72.3z"/>
		<path id="XMLID_704_" class="st1" d="M36.8,65.5c-0.3-0.3-0.7-0.5-1.1-0.5s-0.8,0.2-1.1,0.5s-0.5,0.7-0.5,1.1s0.2,0.8,0.5,1.1
			c0.3,0.3,0.7,0.5,1.1,0.5s0.8-0.2,1.1-0.5s0.5-0.7,0.5-1.1S37.1,65.8,36.8,65.5z"/>
		<path id="XMLID_700_" class="st1" d="M60.6,46.5c-0.3-0.3-0.7-0.5-1.1-0.5c-0.4,0-0.8,0.2-1.1,0.5s-0.5,0.7-0.5,1.1
			c0,0.4,0.2,0.8,0.5,1.1s0.7,0.5,1.1,0.5c0.4,0,0.8-0.2,1.1-0.5s0.5-0.7,0.5-1.1S60.9,46.8,60.6,46.5z"/>
		<path id="XMLID_697_" class="st1" d="M31.6,31.8c-0.3-0.3-0.7-0.5-1.1-0.5s-0.8,0.2-1.1,0.5c-0.3,0.3-0.5,0.7-0.5,1.1
			c0,0.4,0.2,0.8,0.5,1.1s0.7,0.5,1.1,0.5s0.8-0.2,1.1-0.5c0.3-0.3,0.5-0.7,0.5-1.1S31.9,32,31.6,31.8z"/>
	</g>
</g>
</svg>
